<svg width="406" height="70" viewBox="0 0 406 70" fill="none" xmlns="http://www.w3.org/2000/svg">
<path d="M34.9348 22.4663C35.7781 22.5231 36.3955 22.6643 37.1259 23.0825C39.7734 24.598 41.8308 26.9729 44.1369 28.9424C46.0146 30.5451 48.0366 31.9849 49.8836 33.6227C51.5107 35.0652 53.0055 36.8611 53.0557 39.1482C53.1552 43.6439 48.7937 49.3302 45.9177 52.5436C40.5211 58.5732 32.9541 62.6912 24.8386 63.0432C15.033 63.4689 9.3558 58.4981 2.52254 52.1754C1.53491 51.1707 0.780486 50.0944 0 48.9208C0.201135 48.3364 0.408951 47.764 0.663544 47.2012C1.89909 44.4635 3.58435 43.5331 6.28999 42.5244C10.6488 45.3567 14.0882 50.464 18.743 52.5166C23.0203 54.4037 28.1483 54.0882 32.3962 52.2727C37.6544 50.0262 42.0039 45.8155 44.1616 40.4758C38.7664 36.0057 33.6531 31.2802 28.1429 26.9222C30.1951 24.75 32.159 23.4514 34.9348 22.4663Z" fill="#2962FF"/>
<path d="M35.1201 6.04866C35.8645 5.99956 36.6096 5.98762 37.3553 6.01284C38.101 6.03851 38.8437 6.10091 39.5832 6.2C40.3231 6.29955 41.0561 6.43535 41.7823 6.60742C42.5089 6.77993 43.2252 6.98804 43.9313 7.23173C48.4545 8.74316 57.7662 14.5679 59.6706 18.8218C60.0462 19.661 60.1337 20.6231 59.7595 21.4805C59.1708 22.8298 58.0088 24.0284 56.5901 24.4433C51.9373 25.8013 46.5608 19.2239 42.8174 17.132C42.5906 17.0028 42.3605 16.8794 42.1271 16.7618C41.8941 16.6447 41.6582 16.5334 41.4194 16.428C41.1807 16.3231 40.9392 16.2242 40.6951 16.1314C40.4514 16.0386 40.2055 15.9524 39.9574 15.8726C39.7088 15.7929 39.4586 15.7195 39.2069 15.6524C38.9548 15.5853 38.7013 15.5249 38.4465 15.4713C38.1912 15.4177 37.9351 15.3706 37.678 15.3301C37.4206 15.2895 37.1622 15.2558 36.9029 15.2287C36.6441 15.2013 36.3846 15.1808 36.1244 15.1673C35.8643 15.1537 35.6039 15.1468 35.3433 15.1463C35.0827 15.1463 34.8223 15.1528 34.5621 15.1659C34.302 15.1794 34.0425 15.1995 33.7836 15.226C33.5244 15.2531 33.266 15.2866 33.0085 15.3267C32.751 15.3668 32.4946 15.4136 32.2394 15.4672C31.9845 15.5208 31.7311 15.581 31.4789 15.6476C31.2268 15.7139 30.9767 15.7868 30.7285 15.8666C24.8087 17.7327 20.9718 22.6873 18.3096 28.0722C19.7269 29.5749 21.2143 31.0221 22.665 32.4923C26.4519 35.9402 30.7178 39.2725 34.0322 43.1777C32.4459 44.4642 30.9083 45.6844 28.915 46.2702C27.1782 46.7803 25.0666 46.8243 23.4602 45.9C20.6069 44.2575 8.53679 33.1991 8.14254 30.1782C7.83783 27.8391 13.8432 19.4495 15.3634 17.4705C20.3958 10.9181 26.9791 7.06821 35.1201 6.04866Z" fill="#2962FF"/>
<path d="M84.56 56V14H100.16C103.12 14 105.74 14.6 108.02 15.8C110.3 16.96 112.08 18.6 113.36 20.72C114.64 22.8 115.28 25.22 115.28 27.98C115.28 30.7 114.66 33.12 113.42 35.24C112.18 37.36 110.48 39.04 108.32 40.28C106.16 41.48 103.66 42.08 100.82 42.08H92.78V56H84.56ZM92.78 34.52H100.64C102.48 34.52 103.98 33.92 105.14 32.72C106.34 31.48 106.94 29.9 106.94 27.98C106.94 26.06 106.28 24.5 104.96 23.3C103.68 22.1 102.02 21.5 99.98 21.5H92.78V34.52ZM133.086 56.72C130.046 56.72 127.326 56.06 124.926 54.74C122.566 53.38 120.706 51.52 119.346 49.16C118.026 46.8 117.366 44.08 117.366 41C117.366 37.92 118.026 35.2 119.346 32.84C120.666 30.48 122.506 28.64 124.866 27.32C127.226 25.96 129.926 25.28 132.966 25.28C136.046 25.28 138.766 25.96 141.126 27.32C143.486 28.64 145.326 30.48 146.646 32.84C147.966 35.2 148.626 37.92 148.626 41C148.626 44.08 147.966 46.8 146.646 49.16C145.326 51.52 143.486 53.38 141.126 54.74C138.806 56.06 136.126 56.72 133.086 56.72ZM133.086 49.4C134.566 49.4 135.866 49.04 136.986 48.32C138.106 47.6 138.966 46.62 139.566 45.38C140.206 44.1 140.526 42.64 140.526 41C140.526 39.36 140.206 37.92 139.566 36.68C138.926 35.4 138.026 34.4 136.866 33.68C135.746 32.96 134.446 32.6 132.966 32.6C131.526 32.6 130.226 32.96 129.066 33.68C127.946 34.4 127.066 35.4 126.426 36.68C125.786 37.92 125.466 39.36 125.466 41C125.466 42.64 125.786 44.1 126.426 45.38C127.066 46.62 127.966 47.6 129.126 48.32C130.286 49.04 131.606 49.4 133.086 49.4ZM168.31 56.72C165.19 56.72 162.41 56.06 159.97 54.74C157.53 53.38 155.63 51.52 154.27 49.16C152.91 46.76 152.23 44.04 152.23 41C152.23 37.92 152.91 35.2 154.27 32.84C155.63 30.48 157.51 28.64 159.91 27.32C162.31 25.96 165.07 25.28 168.19 25.28C171.19 25.28 173.93 26.02 176.41 27.5C178.89 28.98 180.69 31.12 181.81 33.92L174.37 36.56C173.81 35.4 172.93 34.48 171.73 33.8C170.57 33.08 169.27 32.72 167.83 32.72C166.35 32.72 165.05 33.08 163.93 33.8C162.81 34.48 161.93 35.44 161.29 36.68C160.65 37.92 160.33 39.36 160.33 41C160.33 42.64 160.65 44.08 161.29 45.32C161.93 46.52 162.83 47.48 163.99 48.2C165.15 48.92 166.47 49.28 167.95 49.28C169.39 49.28 170.69 48.9 171.85 48.14C173.05 47.38 173.93 46.38 174.49 45.14L181.99 47.78C180.83 50.62 179.01 52.82 176.53 54.38C174.09 55.94 171.35 56.72 168.31 56.72ZM194.164 48.38L189.424 42.92L204.784 26H214.204L194.164 48.38ZM186.604 56V14H194.524V56H186.604ZM205.804 56L195.844 41.48L201.004 36.02L215.104 56H205.804ZM230.867 56.72C227.907 56.72 225.287 56.06 223.007 54.74C220.727 53.38 218.927 51.52 217.607 49.16C216.327 46.8 215.687 44.08 215.687 41C215.687 37.92 216.347 35.2 217.667 32.84C219.027 30.48 220.867 28.64 223.187 27.32C225.547 25.96 228.247 25.28 231.287 25.28C233.927 25.28 236.347 25.98 238.547 27.38C240.787 28.74 242.567 30.76 243.887 33.44C245.247 36.08 245.927 39.3 245.927 43.1H223.187L223.907 42.38C223.907 43.86 224.267 45.16 224.987 46.28C225.747 47.36 226.707 48.2 227.867 48.8C229.067 49.36 230.347 49.64 231.707 49.64C233.347 49.64 234.687 49.3 235.727 48.62C236.767 47.9 237.567 46.98 238.127 45.86L245.207 48.62C244.367 50.3 243.267 51.76 241.907 53C240.587 54.2 239.007 55.12 237.167 55.76C235.327 56.4 233.227 56.72 230.867 56.72ZM224.327 37.94L223.607 37.22H238.067L237.407 37.94C237.407 36.5 237.067 35.36 236.387 34.52C235.707 33.64 234.867 33 233.867 32.6C232.907 32.2 231.967 32 231.047 32C230.127 32 229.147 32.2 228.107 32.6C227.067 33 226.167 33.64 225.407 34.52C224.687 35.36 224.327 36.5 224.327 37.94ZM262.889 56.72C259.569 56.72 257.049 55.9 255.329 54.26C253.649 52.62 252.809 50.28 252.809 47.24V16.64H260.729V45.5C260.729 46.78 261.009 47.76 261.569 48.44C262.129 49.08 262.949 49.4 264.029 49.4C264.429 49.4 264.869 49.32 265.349 49.16C265.829 48.96 266.329 48.68 266.849 48.32L269.609 54.26C268.649 54.98 267.569 55.56 266.369 56C265.209 56.48 264.049 56.72 262.889 56.72ZM247.949 32.72V26H268.229V32.72H247.949ZM290.27 56.72C287.95 56.72 285.89 56.48 284.09 56C282.29 55.48 280.73 54.78 279.41 53.9C278.09 52.98 277.01 51.98 276.17 50.9C275.33 49.78 274.71 48.6 274.31 47.36L279.17 45.68C279.77 47.44 280.97 48.98 282.77 50.3C284.61 51.58 286.85 52.22 289.49 52.22C292.73 52.22 295.27 51.58 297.11 50.3C298.95 49.02 299.87 47.32 299.87 45.2C299.87 43.24 299.05 41.66 297.41 40.46C295.77 39.22 293.61 38.26 290.93 37.58L286.31 36.38C284.43 35.9 282.69 35.2 281.09 34.28C279.53 33.32 278.27 32.12 277.31 30.68C276.39 29.2 275.93 27.44 275.93 25.4C275.93 21.6 277.15 18.64 279.59 16.52C282.07 14.36 285.63 13.28 290.27 13.28C293.03 13.28 295.41 13.74 297.41 14.66C299.41 15.54 301.03 16.68 302.27 18.08C303.55 19.44 304.45 20.92 304.97 22.52L300.17 24.2C299.41 22.2 298.13 20.64 296.33 19.52C294.53 18.36 292.35 17.78 289.79 17.78C287.11 17.78 284.97 18.44 283.37 19.76C281.81 21.04 281.03 22.8 281.03 25.04C281.03 26.96 281.65 28.44 282.89 29.48C284.13 30.48 285.75 31.22 287.75 31.7L292.37 32.84C296.45 33.8 299.57 35.4 301.73 37.64C303.93 39.84 305.03 42.22 305.03 44.78C305.03 46.98 304.47 49 303.35 50.84C302.23 52.64 300.57 54.08 298.37 55.16C296.21 56.2 293.51 56.72 290.27 56.72ZM315.005 68.72C314.245 68.72 313.365 68.56 312.365 68.24C311.365 67.96 310.305 67.58 309.185 67.1L310.985 63.08C311.905 63.48 312.705 63.78 313.385 63.98C314.105 64.18 314.665 64.28 315.065 64.28C316.145 64.28 317.025 63.98 317.705 63.38C318.425 62.82 319.025 62 319.505 60.92L322.925 52.76L334.025 26H339.185L324.785 60.2C324.025 61.96 323.225 63.48 322.385 64.76C321.585 66.04 320.605 67.02 319.445 67.7C318.285 68.38 316.805 68.72 315.005 68.72ZM321.605 56L308.645 26H313.745L324.905 52.7L326.345 56H321.605ZM343.888 56V26H348.388L348.688 31.52V56H343.888ZM364.948 56V40.64H369.748V56H364.948ZM364.948 40.64C364.948 37.68 364.608 35.42 363.928 33.86C363.248 32.3 362.308 31.24 361.108 30.68C359.908 30.08 358.548 29.78 357.028 29.78C354.388 29.78 352.328 30.72 350.848 32.6C349.408 34.44 348.688 37.06 348.688 40.46H346.348C346.348 37.3 346.808 34.58 347.728 32.3C348.648 30.02 349.988 28.28 351.748 27.08C353.508 25.88 355.628 25.28 358.108 25.28C360.468 25.28 362.508 25.76 364.228 26.72C365.988 27.64 367.348 29.12 368.308 31.16C369.308 33.2 369.788 35.88 369.748 39.2V40.64H364.948ZM390.725 56.72C387.765 56.72 385.145 56.06 382.865 54.74C380.585 53.38 378.805 51.52 377.525 49.16C376.245 46.8 375.605 44.08 375.605 41C375.605 37.92 376.225 35.2 377.465 32.84C378.745 30.48 380.525 28.64 382.805 27.32C385.085 25.96 387.685 25.28 390.605 25.28C393.485 25.28 396.065 25.94 398.345 27.26C400.625 28.58 402.365 30.44 403.565 32.84L399.185 34.82C398.385 33.22 397.225 31.98 395.705 31.1C394.185 30.18 392.445 29.72 390.485 29.72C388.525 29.72 386.785 30.2 385.265 31.16C383.785 32.12 382.605 33.46 381.725 35.18C380.885 36.86 380.465 38.8 380.465 41C380.465 43.2 380.885 45.16 381.725 46.88C382.605 48.56 383.805 49.88 385.325 50.84C386.885 51.8 388.645 52.28 390.605 52.28C392.565 52.28 394.305 51.78 395.825 50.78C397.385 49.78 398.565 48.38 399.365 46.58L403.745 48.56C402.545 51.12 400.805 53.12 398.525 54.56C396.245 56 393.645 56.72 390.725 56.72Z" fill="black"/>
</svg>
